<svg width="21" height="14" viewBox="0 0 21 14" fill="none" xmlns="http://www.w3.org/2000/svg">
<path d="M2 0H16C20 9 12 12 12 12H6.00001C6.00001 12 -0.999999 9 2 0Z" fill="white"/>
<path d="M21 5C21 7.20914 19.2091 9 17 9C14.7909 9 13 7.20914 13 5C13 2.79086 14.7909 1 17 1C19.2091 1 21 2.79086 21 5ZM14.3009 5C14.3009 6.49068 15.5093 7.69912 17 7.69912C18.4907 7.69912 19.6991 6.49068 19.6991 5C19.6991 3.50932 18.4907 2.30088 17 2.30088C15.5093 2.30088 14.3009 3.50932 14.3009 5Z" fill="white"/>
<rect y="13" width="18" height="1" fill="white"/>
</svg>
