<svg width="570" height="10" viewBox="0 0 570 10" fill="none" xmlns="http://www.w3.org/2000/svg">
<mask id="mask0_1415_2" style="mask-type:alpha" maskUnits="userSpaceOnUse" x="0" y="0" width="38" height="10">
<rect width="38" height="10" fill="#ECECEC"/>
</mask>
<g mask="url(#mask0_1415_2)">
<rect x="19.1838" y="-20" width="1" height="55.7253" transform="rotate(45 19.1838 -20)" fill="#D0D0D0"/>
<rect x="36.1544" y="-3.0293" width="1" height="55.7253" transform="rotate(45 36.1544 -3.0293)" fill="#D0D0D0"/>
<rect x="27.6691" y="-11.5146" width="1" height="55.7253" transform="rotate(45 27.6691 -11.5146)" fill="#D0D0D0"/>
<rect x="44.6396" y="5.45605" width="1" height="55.7253" transform="rotate(45 44.6396 5.45605)" fill="#D0D0D0"/>
<rect x="23.4264" y="-15.7573" width="1" height="55.7253" transform="rotate(45 23.4264 -15.7573)" fill="#D0D0D0"/>
<rect x="40.397" y="1.21338" width="1" height="55.7253" transform="rotate(45 40.397 1.21338)" fill="#D0D0D0"/>
<rect x="31.9117" y="-7.27197" width="1" height="55.7253" transform="rotate(45 31.9117 -7.27197)" fill="#D0D0D0"/>
<rect x="48.8823" y="9.69824" width="1" height="55.7253" transform="rotate(45 48.8823 9.69824)" fill="#D0D0D0"/>
<rect x="21.3051" y="-17.8789" width="1" height="55.7253" transform="rotate(45 21.3051 -17.8789)" fill="#D0D0D0"/>
<rect x="38.2756" y="-0.908203" width="1" height="55.7253" transform="rotate(45 38.2756 -0.908203)" fill="#D0D0D0"/>
<rect x="29.7904" y="-9.39355" width="1" height="55.7253" transform="rotate(45 29.7904 -9.39355)" fill="#D0D0D0"/>
<rect x="46.7609" y="7.57715" width="1" height="55.7253" transform="rotate(45 46.7609 7.57715)" fill="#D0D0D0"/>
<rect x="25.5477" y="-13.6362" width="1" height="55.7253" transform="rotate(45 25.5477 -13.6362)" fill="#D0D0D0"/>
<rect x="42.5183" y="3.33447" width="1" height="55.7253" transform="rotate(45 42.5183 3.33447)" fill="#D0D0D0"/>
<rect x="34.033" y="-5.15088" width="1" height="55.7253" transform="rotate(45 34.033 -5.15088)" fill="#D0D0D0"/>
</g>
<mask id="mask1_1415_2" style="mask-type:alpha" maskUnits="userSpaceOnUse" x="342" y="0" width="38" height="10">
<rect x="342" width="38" height="10" fill="#ECECEC"/>
</mask>
<g mask="url(#mask1_1415_2)">
<rect x="361.184" y="-20" width="1" height="55.7253" transform="rotate(45 361.184 -20)" fill="#D0D0D0"/>
<rect x="378.154" y="-3.0293" width="1" height="55.7253" transform="rotate(45 378.154 -3.0293)" fill="#D0D0D0"/>
<rect x="369.669" y="-11.5146" width="1" height="55.7253" transform="rotate(45 369.669 -11.5146)" fill="#D0D0D0"/>
<rect x="386.64" y="5.45605" width="1" height="55.7253" transform="rotate(45 386.64 5.45605)" fill="#D0D0D0"/>
<rect x="365.426" y="-15.7573" width="1" height="55.7253" transform="rotate(45 365.426 -15.7573)" fill="#D0D0D0"/>
<rect x="382.397" y="1.21338" width="1" height="55.7253" transform="rotate(45 382.397 1.21338)" fill="#D0D0D0"/>
<rect x="373.912" y="-7.27197" width="1" height="55.7253" transform="rotate(45 373.912 -7.27197)" fill="#D0D0D0"/>
<rect x="390.882" y="9.69824" width="1" height="55.7253" transform="rotate(45 390.882 9.69824)" fill="#D0D0D0"/>
<rect x="363.305" y="-17.8789" width="1" height="55.7253" transform="rotate(45 363.305 -17.8789)" fill="#D0D0D0"/>
<rect x="380.276" y="-0.908203" width="1" height="55.7253" transform="rotate(45 380.276 -0.908203)" fill="#D0D0D0"/>
<rect x="371.79" y="-9.39355" width="1" height="55.7253" transform="rotate(45 371.79 -9.39355)" fill="#D0D0D0"/>
<rect x="388.761" y="7.57715" width="1" height="55.7253" transform="rotate(45 388.761 7.57715)" fill="#D0D0D0"/>
<rect x="367.548" y="-13.6362" width="1" height="55.7253" transform="rotate(45 367.548 -13.6362)" fill="#D0D0D0"/>
<rect x="384.518" y="3.33447" width="1" height="55.7253" transform="rotate(45 384.518 3.33447)" fill="#D0D0D0"/>
<rect x="376.033" y="-5.15088" width="1" height="55.7253" transform="rotate(45 376.033 -5.15088)" fill="#D0D0D0"/>
</g>
<mask id="mask2_1415_2" style="mask-type:alpha" maskUnits="userSpaceOnUse" x="304" y="0" width="38" height="10">
<rect x="304" width="38" height="10" fill="#ECECEC"/>
</mask>
<g mask="url(#mask2_1415_2)">
<rect x="323.184" y="-20" width="1" height="55.7253" transform="rotate(45 323.184 -20)" fill="#D0D0D0"/>
<rect x="340.154" y="-3.0293" width="1" height="55.7253" transform="rotate(45 340.154 -3.0293)" fill="#D0D0D0"/>
<rect x="331.669" y="-11.5146" width="1" height="55.7253" transform="rotate(45 331.669 -11.5146)" fill="#D0D0D0"/>
<rect x="348.64" y="5.45605" width="1" height="55.7253" transform="rotate(45 348.64 5.45605)" fill="#D0D0D0"/>
<rect x="327.426" y="-15.7573" width="1" height="55.7253" transform="rotate(45 327.426 -15.7573)" fill="#D0D0D0"/>
<rect x="344.397" y="1.21338" width="1" height="55.7253" transform="rotate(45 344.397 1.21338)" fill="#D0D0D0"/>
<rect x="335.912" y="-7.27197" width="1" height="55.7253" transform="rotate(45 335.912 -7.27197)" fill="#D0D0D0"/>
<rect x="352.882" y="9.69824" width="1" height="55.7253" transform="rotate(45 352.882 9.69824)" fill="#D0D0D0"/>
<rect x="325.305" y="-17.8789" width="1" height="55.7253" transform="rotate(45 325.305 -17.8789)" fill="#D0D0D0"/>
<rect x="342.276" y="-0.908203" width="1" height="55.7253" transform="rotate(45 342.276 -0.908203)" fill="#D0D0D0"/>
<rect x="333.79" y="-9.39355" width="1" height="55.7253" transform="rotate(45 333.79 -9.39355)" fill="#D0D0D0"/>
<rect x="350.761" y="7.57715" width="1" height="55.7253" transform="rotate(45 350.761 7.57715)" fill="#D0D0D0"/>
<rect x="329.548" y="-13.6362" width="1" height="55.7253" transform="rotate(45 329.548 -13.6362)" fill="#D0D0D0"/>
<rect x="346.518" y="3.33447" width="1" height="55.7253" transform="rotate(45 346.518 3.33447)" fill="#D0D0D0"/>
<rect x="338.033" y="-5.15088" width="1" height="55.7253" transform="rotate(45 338.033 -5.15088)" fill="#D0D0D0"/>
</g>
<mask id="mask3_1415_2" style="mask-type:alpha" maskUnits="userSpaceOnUse" x="152" y="0" width="38" height="10">
<rect x="152" width="38" height="10" fill="#ECECEC"/>
</mask>
<g mask="url(#mask3_1415_2)">
<rect x="171.184" y="-20" width="1" height="55.7253" transform="rotate(45 171.184 -20)" fill="#D0D0D0"/>
<rect x="188.154" y="-3.0293" width="1" height="55.7253" transform="rotate(45 188.154 -3.0293)" fill="#D0D0D0"/>
<rect x="179.669" y="-11.5146" width="1" height="55.7253" transform="rotate(45 179.669 -11.5146)" fill="#D0D0D0"/>
<rect x="196.64" y="5.45605" width="1" height="55.7253" transform="rotate(45 196.64 5.45605)" fill="#D0D0D0"/>
<rect x="175.426" y="-15.7573" width="1" height="55.7253" transform="rotate(45 175.426 -15.7573)" fill="#D0D0D0"/>
<rect x="192.397" y="1.21338" width="1" height="55.7253" transform="rotate(45 192.397 1.21338)" fill="#D0D0D0"/>
<rect x="183.912" y="-7.27197" width="1" height="55.7253" transform="rotate(45 183.912 -7.27197)" fill="#D0D0D0"/>
<rect x="200.882" y="9.69824" width="1" height="55.7253" transform="rotate(45 200.882 9.69824)" fill="#D0D0D0"/>
<rect x="173.305" y="-17.8789" width="1" height="55.7253" transform="rotate(45 173.305 -17.8789)" fill="#D0D0D0"/>
<rect x="190.276" y="-0.908203" width="1" height="55.7253" transform="rotate(45 190.276 -0.908203)" fill="#D0D0D0"/>
<rect x="181.79" y="-9.39355" width="1" height="55.7253" transform="rotate(45 181.79 -9.39355)" fill="#D0D0D0"/>
<rect x="198.761" y="7.57715" width="1" height="55.7253" transform="rotate(45 198.761 7.57715)" fill="#D0D0D0"/>
<rect x="177.548" y="-13.6362" width="1" height="55.7253" transform="rotate(45 177.548 -13.6362)" fill="#D0D0D0"/>
<rect x="194.518" y="3.33447" width="1" height="55.7253" transform="rotate(45 194.518 3.33447)" fill="#D0D0D0"/>
<rect x="186.033" y="-5.15088" width="1" height="55.7253" transform="rotate(45 186.033 -5.15088)" fill="#D0D0D0"/>
</g>
<mask id="mask4_1415_2" style="mask-type:alpha" maskUnits="userSpaceOnUse" x="494" y="0" width="38" height="10">
<rect x="494" width="38" height="10" fill="#ECECEC"/>
</mask>
<g mask="url(#mask4_1415_2)">
<rect x="513.184" y="-20" width="1" height="55.7253" transform="rotate(45 513.184 -20)" fill="#D0D0D0"/>
<rect x="530.154" y="-3.0293" width="1" height="55.7253" transform="rotate(45 530.154 -3.0293)" fill="#D0D0D0"/>
<rect x="521.669" y="-11.5146" width="1" height="55.7253" transform="rotate(45 521.669 -11.5146)" fill="#D0D0D0"/>
<rect x="538.64" y="5.45605" width="1" height="55.7253" transform="rotate(45 538.64 5.45605)" fill="#D0D0D0"/>
<rect x="517.426" y="-15.7573" width="1" height="55.7253" transform="rotate(45 517.426 -15.7573)" fill="#D0D0D0"/>
<rect x="534.397" y="1.21338" width="1" height="55.7253" transform="rotate(45 534.397 1.21338)" fill="#D0D0D0"/>
<rect x="525.912" y="-7.27197" width="1" height="55.7253" transform="rotate(45 525.912 -7.27197)" fill="#D0D0D0"/>
<rect x="542.882" y="9.69824" width="1" height="55.7253" transform="rotate(45 542.882 9.69824)" fill="#D0D0D0"/>
<rect x="515.305" y="-17.8789" width="1" height="55.7253" transform="rotate(45 515.305 -17.8789)" fill="#D0D0D0"/>
<rect x="532.276" y="-0.908203" width="1" height="55.7253" transform="rotate(45 532.276 -0.908203)" fill="#D0D0D0"/>
<rect x="523.79" y="-9.39355" width="1" height="55.7253" transform="rotate(45 523.79 -9.39355)" fill="#D0D0D0"/>
<rect x="540.761" y="7.57715" width="1" height="55.7253" transform="rotate(45 540.761 7.57715)" fill="#D0D0D0"/>
<rect x="519.548" y="-13.6362" width="1" height="55.7253" transform="rotate(45 519.548 -13.6362)" fill="#D0D0D0"/>
<rect x="536.518" y="3.33447" width="1" height="55.7253" transform="rotate(45 536.518 3.33447)" fill="#D0D0D0"/>
<rect x="528.033" y="-5.15088" width="1" height="55.7253" transform="rotate(45 528.033 -5.15088)" fill="#D0D0D0"/>
</g>
<mask id="mask5_1415_2" style="mask-type:alpha" maskUnits="userSpaceOnUse" x="76" y="0" width="38" height="10">
<rect x="76" width="38" height="10" fill="#ECECEC"/>
</mask>
<g mask="url(#mask5_1415_2)">
<rect x="95.1838" y="-20" width="1" height="55.7253" transform="rotate(45 95.1838 -20)" fill="#D0D0D0"/>
<rect x="112.154" y="-3.0293" width="1" height="55.7253" transform="rotate(45 112.154 -3.0293)" fill="#D0D0D0"/>
<rect x="103.669" y="-11.5146" width="1" height="55.7253" transform="rotate(45 103.669 -11.5146)" fill="#D0D0D0"/>
<rect x="120.64" y="5.45605" width="1" height="55.7253" transform="rotate(45 120.64 5.45605)" fill="#D0D0D0"/>
<rect x="99.4264" y="-15.7573" width="1" height="55.7253" transform="rotate(45 99.4264 -15.7573)" fill="#D0D0D0"/>
<rect x="116.397" y="1.21338" width="1" height="55.7253" transform="rotate(45 116.397 1.21338)" fill="#D0D0D0"/>
<rect x="107.912" y="-7.27197" width="1" height="55.7253" transform="rotate(45 107.912 -7.27197)" fill="#D0D0D0"/>
<rect x="124.882" y="9.69824" width="1" height="55.7253" transform="rotate(45 124.882 9.69824)" fill="#D0D0D0"/>
<rect x="97.3051" y="-17.8789" width="1" height="55.7253" transform="rotate(45 97.3051 -17.8789)" fill="#D0D0D0"/>
<rect x="114.276" y="-0.908203" width="1" height="55.7253" transform="rotate(45 114.276 -0.908203)" fill="#D0D0D0"/>
<rect x="105.79" y="-9.39355" width="1" height="55.7253" transform="rotate(45 105.79 -9.39355)" fill="#D0D0D0"/>
<rect x="122.761" y="7.57715" width="1" height="55.7253" transform="rotate(45 122.761 7.57715)" fill="#D0D0D0"/>
<rect x="101.548" y="-13.6362" width="1" height="55.7253" transform="rotate(45 101.548 -13.6362)" fill="#D0D0D0"/>
<rect x="118.518" y="3.33447" width="1" height="55.7253" transform="rotate(45 118.518 3.33447)" fill="#D0D0D0"/>
<rect x="110.033" y="-5.15088" width="1" height="55.7253" transform="rotate(45 110.033 -5.15088)" fill="#D0D0D0"/>
</g>
<mask id="mask6_1415_2" style="mask-type:alpha" maskUnits="userSpaceOnUse" x="418" y="0" width="38" height="10">
<rect x="418" width="38" height="10" fill="#ECECEC"/>
</mask>
<g mask="url(#mask6_1415_2)">
<rect x="437.184" y="-20" width="1" height="55.7253" transform="rotate(45 437.184 -20)" fill="#D0D0D0"/>
<rect x="454.154" y="-3.0293" width="1" height="55.7253" transform="rotate(45 454.154 -3.0293)" fill="#D0D0D0"/>
<rect x="445.669" y="-11.5146" width="1" height="55.7253" transform="rotate(45 445.669 -11.5146)" fill="#D0D0D0"/>
<rect x="462.64" y="5.45605" width="1" height="55.7253" transform="rotate(45 462.64 5.45605)" fill="#D0D0D0"/>
<rect x="441.426" y="-15.7573" width="1" height="55.7253" transform="rotate(45 441.426 -15.7573)" fill="#D0D0D0"/>
<rect x="458.397" y="1.21338" width="1" height="55.7253" transform="rotate(45 458.397 1.21338)" fill="#D0D0D0"/>
<rect x="449.912" y="-7.27197" width="1" height="55.7253" transform="rotate(45 449.912 -7.27197)" fill="#D0D0D0"/>
<rect x="466.882" y="9.69824" width="1" height="55.7253" transform="rotate(45 466.882 9.69824)" fill="#D0D0D0"/>
<rect x="439.305" y="-17.8789" width="1" height="55.7253" transform="rotate(45 439.305 -17.8789)" fill="#D0D0D0"/>
<rect x="456.276" y="-0.908203" width="1" height="55.7253" transform="rotate(45 456.276 -0.908203)" fill="#D0D0D0"/>
<rect x="447.79" y="-9.39355" width="1" height="55.7253" transform="rotate(45 447.79 -9.39355)" fill="#D0D0D0"/>
<rect x="464.761" y="7.57715" width="1" height="55.7253" transform="rotate(45 464.761 7.57715)" fill="#D0D0D0"/>
<rect x="443.548" y="-13.6362" width="1" height="55.7253" transform="rotate(45 443.548 -13.6362)" fill="#D0D0D0"/>
<rect x="460.518" y="3.33447" width="1" height="55.7253" transform="rotate(45 460.518 3.33447)" fill="#D0D0D0"/>
<rect x="452.033" y="-5.15088" width="1" height="55.7253" transform="rotate(45 452.033 -5.15088)" fill="#D0D0D0"/>
</g>
<mask id="mask7_1415_2" style="mask-type:alpha" maskUnits="userSpaceOnUse" x="228" y="0" width="38" height="10">
<rect x="228" width="38" height="10" fill="#ECECEC"/>
</mask>
<g mask="url(#mask7_1415_2)">
<rect x="247.184" y="-20" width="1" height="55.7253" transform="rotate(45 247.184 -20)" fill="#D0D0D0"/>
<rect x="264.154" y="-3.0293" width="1" height="55.7253" transform="rotate(45 264.154 -3.0293)" fill="#D0D0D0"/>
<rect x="255.669" y="-11.5146" width="1" height="55.7253" transform="rotate(45 255.669 -11.5146)" fill="#D0D0D0"/>
<rect x="272.64" y="5.45605" width="1" height="55.7253" transform="rotate(45 272.64 5.45605)" fill="#D0D0D0"/>
<rect x="251.426" y="-15.7573" width="1" height="55.7253" transform="rotate(45 251.426 -15.7573)" fill="#D0D0D0"/>
<rect x="268.397" y="1.21338" width="1" height="55.7253" transform="rotate(45 268.397 1.21338)" fill="#D0D0D0"/>
<rect x="259.912" y="-7.27197" width="1" height="55.7253" transform="rotate(45 259.912 -7.27197)" fill="#D0D0D0"/>
<rect x="276.882" y="9.69824" width="1" height="55.7253" transform="rotate(45 276.882 9.69824)" fill="#D0D0D0"/>
<rect x="249.305" y="-17.8789" width="1" height="55.7253" transform="rotate(45 249.305 -17.8789)" fill="#D0D0D0"/>
<rect x="266.276" y="-0.908203" width="1" height="55.7253" transform="rotate(45 266.276 -0.908203)" fill="#D0D0D0"/>
<rect x="257.79" y="-9.39355" width="1" height="55.7253" transform="rotate(45 257.79 -9.39355)" fill="#D0D0D0"/>
<rect x="274.761" y="7.57715" width="1" height="55.7253" transform="rotate(45 274.761 7.57715)" fill="#D0D0D0"/>
<rect x="253.548" y="-13.6362" width="1" height="55.7253" transform="rotate(45 253.548 -13.6362)" fill="#D0D0D0"/>
<rect x="270.518" y="3.33447" width="1" height="55.7253" transform="rotate(45 270.518 3.33447)" fill="#D0D0D0"/>
<rect x="262.033" y="-5.15088" width="1" height="55.7253" transform="rotate(45 262.033 -5.15088)" fill="#D0D0D0"/>
</g>
<mask id="mask8_1415_2" style="mask-type:alpha" maskUnits="userSpaceOnUse" x="38" y="0" width="38" height="10">
<rect x="38" width="38" height="10" fill="#ECECEC"/>
</mask>
<g mask="url(#mask8_1415_2)">
<rect x="57.1838" y="-20" width="1" height="55.7253" transform="rotate(45 57.1838 -20)" fill="#D0D0D0"/>
<rect x="74.1543" y="-3.0293" width="1" height="55.7253" transform="rotate(45 74.1543 -3.0293)" fill="#D0D0D0"/>
<rect x="65.6691" y="-11.5146" width="1" height="55.7253" transform="rotate(45 65.6691 -11.5146)" fill="#D0D0D0"/>
<rect x="82.6396" y="5.45605" width="1" height="55.7253" transform="rotate(45 82.6396 5.45605)" fill="#D0D0D0"/>
<rect x="61.4264" y="-15.7573" width="1" height="55.7253" transform="rotate(45 61.4264 -15.7573)" fill="#D0D0D0"/>
<rect x="78.397" y="1.21338" width="1" height="55.7253" transform="rotate(45 78.397 1.21338)" fill="#D0D0D0"/>
<rect x="69.9117" y="-7.27197" width="1" height="55.7253" transform="rotate(45 69.9117 -7.27197)" fill="#D0D0D0"/>
<rect x="86.8823" y="9.69824" width="1" height="55.7253" transform="rotate(45 86.8823 9.69824)" fill="#D0D0D0"/>
<rect x="59.3051" y="-17.8789" width="1" height="55.7253" transform="rotate(45 59.3051 -17.8789)" fill="#D0D0D0"/>
<rect x="76.2757" y="-0.908203" width="1" height="55.7253" transform="rotate(45 76.2757 -0.908203)" fill="#D0D0D0"/>
<rect x="67.7904" y="-9.39355" width="1" height="55.7253" transform="rotate(45 67.7904 -9.39355)" fill="#D0D0D0"/>
<rect x="84.761" y="7.57715" width="1" height="55.7253" transform="rotate(45 84.761 7.57715)" fill="#D0D0D0"/>
<rect x="63.5477" y="-13.6362" width="1" height="55.7253" transform="rotate(45 63.5477 -13.6362)" fill="#D0D0D0"/>
<rect x="80.5183" y="3.33447" width="1" height="55.7253" transform="rotate(45 80.5183 3.33447)" fill="#D0D0D0"/>
<rect x="72.033" y="-5.15088" width="1" height="55.7253" transform="rotate(45 72.033 -5.15088)" fill="#D0D0D0"/>
</g>
<mask id="mask9_1415_2" style="mask-type:alpha" maskUnits="userSpaceOnUse" x="380" y="0" width="38" height="10">
<rect x="380" width="38" height="10" fill="#ECECEC"/>
</mask>
<g mask="url(#mask9_1415_2)">
<rect x="399.184" y="-20" width="1" height="55.7253" transform="rotate(45 399.184 -20)" fill="#D0D0D0"/>
<rect x="416.154" y="-3.0293" width="1" height="55.7253" transform="rotate(45 416.154 -3.0293)" fill="#D0D0D0"/>
<rect x="407.669" y="-11.5146" width="1" height="55.7253" transform="rotate(45 407.669 -11.5146)" fill="#D0D0D0"/>
<rect x="424.64" y="5.45605" width="1" height="55.7253" transform="rotate(45 424.64 5.45605)" fill="#D0D0D0"/>
<rect x="403.426" y="-15.7573" width="1" height="55.7253" transform="rotate(45 403.426 -15.7573)" fill="#D0D0D0"/>
<rect x="420.397" y="1.21338" width="1" height="55.7253" transform="rotate(45 420.397 1.21338)" fill="#D0D0D0"/>
<rect x="411.912" y="-7.27197" width="1" height="55.7253" transform="rotate(45 411.912 -7.27197)" fill="#D0D0D0"/>
<rect x="428.882" y="9.69824" width="1" height="55.7253" transform="rotate(45 428.882 9.69824)" fill="#D0D0D0"/>
<rect x="401.305" y="-17.8789" width="1" height="55.7253" transform="rotate(45 401.305 -17.8789)" fill="#D0D0D0"/>
<rect x="418.276" y="-0.908203" width="1" height="55.7253" transform="rotate(45 418.276 -0.908203)" fill="#D0D0D0"/>
<rect x="409.79" y="-9.39355" width="1" height="55.7253" transform="rotate(45 409.79 -9.39355)" fill="#D0D0D0"/>
<rect x="426.761" y="7.57715" width="1" height="55.7253" transform="rotate(45 426.761 7.57715)" fill="#D0D0D0"/>
<rect x="405.548" y="-13.6362" width="1" height="55.7253" transform="rotate(45 405.548 -13.6362)" fill="#D0D0D0"/>
<rect x="422.518" y="3.33447" width="1" height="55.7253" transform="rotate(45 422.518 3.33447)" fill="#D0D0D0"/>
<rect x="414.033" y="-5.15088" width="1" height="55.7253" transform="rotate(45 414.033 -5.15088)" fill="#D0D0D0"/>
</g>
<mask id="mask10_1415_2" style="mask-type:alpha" maskUnits="userSpaceOnUse" x="190" y="0" width="38" height="10">
<rect x="190" width="38" height="10" fill="#ECECEC"/>
</mask>
<g mask="url(#mask10_1415_2)">
<rect x="209.184" y="-20" width="1" height="55.7253" transform="rotate(45 209.184 -20)" fill="#D0D0D0"/>
<rect x="226.154" y="-3.0293" width="1" height="55.7253" transform="rotate(45 226.154 -3.0293)" fill="#D0D0D0"/>
<rect x="217.669" y="-11.5146" width="1" height="55.7253" transform="rotate(45 217.669 -11.5146)" fill="#D0D0D0"/>
<rect x="234.64" y="5.45605" width="1" height="55.7253" transform="rotate(45 234.64 5.45605)" fill="#D0D0D0"/>
<rect x="213.426" y="-15.7573" width="1" height="55.7253" transform="rotate(45 213.426 -15.7573)" fill="#D0D0D0"/>
<rect x="230.397" y="1.21338" width="1" height="55.7253" transform="rotate(45 230.397 1.21338)" fill="#D0D0D0"/>
<rect x="221.912" y="-7.27197" width="1" height="55.7253" transform="rotate(45 221.912 -7.27197)" fill="#D0D0D0"/>
<rect x="238.882" y="9.69824" width="1" height="55.7253" transform="rotate(45 238.882 9.69824)" fill="#D0D0D0"/>
<rect x="211.305" y="-17.8789" width="1" height="55.7253" transform="rotate(45 211.305 -17.8789)" fill="#D0D0D0"/>
<rect x="228.276" y="-0.908203" width="1" height="55.7253" transform="rotate(45 228.276 -0.908203)" fill="#D0D0D0"/>
<rect x="219.79" y="-9.39355" width="1" height="55.7253" transform="rotate(45 219.79 -9.39355)" fill="#D0D0D0"/>
<rect x="236.761" y="7.57715" width="1" height="55.7253" transform="rotate(45 236.761 7.57715)" fill="#D0D0D0"/>
<rect x="215.548" y="-13.6362" width="1" height="55.7253" transform="rotate(45 215.548 -13.6362)" fill="#D0D0D0"/>
<rect x="232.518" y="3.33447" width="1" height="55.7253" transform="rotate(45 232.518 3.33447)" fill="#D0D0D0"/>
<rect x="224.033" y="-5.15088" width="1" height="55.7253" transform="rotate(45 224.033 -5.15088)" fill="#D0D0D0"/>
</g>
<mask id="mask11_1415_2" style="mask-type:alpha" maskUnits="userSpaceOnUse" x="532" y="0" width="38" height="10">
<rect x="532" width="38" height="10" fill="#ECECEC"/>
</mask>
<g mask="url(#mask11_1415_2)">
<rect x="551.184" y="-20" width="1" height="55.7253" transform="rotate(45 551.184 -20)" fill="#D0D0D0"/>
<rect x="568.154" y="-3.0293" width="1" height="55.7253" transform="rotate(45 568.154 -3.0293)" fill="#D0D0D0"/>
<rect x="559.669" y="-11.5146" width="1" height="55.7253" transform="rotate(45 559.669 -11.5146)" fill="#D0D0D0"/>
<rect x="576.64" y="5.45605" width="1" height="55.7253" transform="rotate(45 576.64 5.45605)" fill="#D0D0D0"/>
<rect x="555.426" y="-15.7573" width="1" height="55.7253" transform="rotate(45 555.426 -15.7573)" fill="#D0D0D0"/>
<rect x="572.397" y="1.21338" width="1" height="55.7253" transform="rotate(45 572.397 1.21338)" fill="#D0D0D0"/>
<rect x="563.912" y="-7.27197" width="1" height="55.7253" transform="rotate(45 563.912 -7.27197)" fill="#D0D0D0"/>
<rect x="580.882" y="9.69824" width="1" height="55.7253" transform="rotate(45 580.882 9.69824)" fill="#D0D0D0"/>
<rect x="553.305" y="-17.8789" width="1" height="55.7253" transform="rotate(45 553.305 -17.8789)" fill="#D0D0D0"/>
<rect x="570.276" y="-0.908203" width="1" height="55.7253" transform="rotate(45 570.276 -0.908203)" fill="#D0D0D0"/>
<rect x="561.79" y="-9.39355" width="1" height="55.7253" transform="rotate(45 561.79 -9.39355)" fill="#D0D0D0"/>
<rect x="578.761" y="7.57715" width="1" height="55.7253" transform="rotate(45 578.761 7.57715)" fill="#D0D0D0"/>
<rect x="557.548" y="-13.6362" width="1" height="55.7253" transform="rotate(45 557.548 -13.6362)" fill="#D0D0D0"/>
<rect x="574.518" y="3.33447" width="1" height="55.7253" transform="rotate(45 574.518 3.33447)" fill="#D0D0D0"/>
<rect x="566.033" y="-5.15088" width="1" height="55.7253" transform="rotate(45 566.033 -5.15088)" fill="#D0D0D0"/>
</g>
<mask id="mask12_1415_2" style="mask-type:alpha" maskUnits="userSpaceOnUse" x="114" y="0" width="38" height="10">
<rect x="114" width="38" height="10" fill="#ECECEC"/>
</mask>
<g mask="url(#mask12_1415_2)">
<rect x="133.184" y="-20" width="1" height="55.7253" transform="rotate(45 133.184 -20)" fill="#D0D0D0"/>
<rect x="150.154" y="-3.0293" width="1" height="55.7253" transform="rotate(45 150.154 -3.0293)" fill="#D0D0D0"/>
<rect x="141.669" y="-11.5146" width="1" height="55.7253" transform="rotate(45 141.669 -11.5146)" fill="#D0D0D0"/>
<rect x="158.64" y="5.45605" width="1" height="55.7253" transform="rotate(45 158.64 5.45605)" fill="#D0D0D0"/>
<rect x="137.426" y="-15.7573" width="1" height="55.7253" transform="rotate(45 137.426 -15.7573)" fill="#D0D0D0"/>
<rect x="154.397" y="1.21338" width="1" height="55.7253" transform="rotate(45 154.397 1.21338)" fill="#D0D0D0"/>
<rect x="145.912" y="-7.27197" width="1" height="55.7253" transform="rotate(45 145.912 -7.27197)" fill="#D0D0D0"/>
<rect x="162.882" y="9.69824" width="1" height="55.7253" transform="rotate(45 162.882 9.69824)" fill="#D0D0D0"/>
<rect x="135.305" y="-17.8789" width="1" height="55.7253" transform="rotate(45 135.305 -17.8789)" fill="#D0D0D0"/>
<rect x="152.276" y="-0.908203" width="1" height="55.7253" transform="rotate(45 152.276 -0.908203)" fill="#D0D0D0"/>
<rect x="143.79" y="-9.39355" width="1" height="55.7253" transform="rotate(45 143.79 -9.39355)" fill="#D0D0D0"/>
<rect x="160.761" y="7.57715" width="1" height="55.7253" transform="rotate(45 160.761 7.57715)" fill="#D0D0D0"/>
<rect x="139.548" y="-13.6362" width="1" height="55.7253" transform="rotate(45 139.548 -13.6362)" fill="#D0D0D0"/>
<rect x="156.518" y="3.33447" width="1" height="55.7253" transform="rotate(45 156.518 3.33447)" fill="#D0D0D0"/>
<rect x="148.033" y="-5.15088" width="1" height="55.7253" transform="rotate(45 148.033 -5.15088)" fill="#D0D0D0"/>
</g>
<mask id="mask13_1415_2" style="mask-type:alpha" maskUnits="userSpaceOnUse" x="456" y="0" width="38" height="10">
<rect x="456" width="38" height="10" fill="#ECECEC"/>
</mask>
<g mask="url(#mask13_1415_2)">
<rect x="475.184" y="-20" width="1" height="55.7253" transform="rotate(45 475.184 -20)" fill="#D0D0D0"/>
<rect x="492.154" y="-3.0293" width="1" height="55.7253" transform="rotate(45 492.154 -3.0293)" fill="#D0D0D0"/>
<rect x="483.669" y="-11.5146" width="1" height="55.7253" transform="rotate(45 483.669 -11.5146)" fill="#D0D0D0"/>
<rect x="500.64" y="5.45605" width="1" height="55.7253" transform="rotate(45 500.64 5.45605)" fill="#D0D0D0"/>
<rect x="479.426" y="-15.7573" width="1" height="55.7253" transform="rotate(45 479.426 -15.7573)" fill="#D0D0D0"/>
<rect x="496.397" y="1.21338" width="1" height="55.7253" transform="rotate(45 496.397 1.21338)" fill="#D0D0D0"/>
<rect x="487.912" y="-7.27197" width="1" height="55.7253" transform="rotate(45 487.912 -7.27197)" fill="#D0D0D0"/>
<rect x="504.882" y="9.69824" width="1" height="55.7253" transform="rotate(45 504.882 9.69824)" fill="#D0D0D0"/>
<rect x="477.305" y="-17.8789" width="1" height="55.7253" transform="rotate(45 477.305 -17.8789)" fill="#D0D0D0"/>
<rect x="494.276" y="-0.908203" width="1" height="55.7253" transform="rotate(45 494.276 -0.908203)" fill="#D0D0D0"/>
<rect x="485.79" y="-9.39355" width="1" height="55.7253" transform="rotate(45 485.79 -9.39355)" fill="#D0D0D0"/>
<rect x="502.761" y="7.57715" width="1" height="55.7253" transform="rotate(45 502.761 7.57715)" fill="#D0D0D0"/>
<rect x="481.548" y="-13.6362" width="1" height="55.7253" transform="rotate(45 481.548 -13.6362)" fill="#D0D0D0"/>
<rect x="498.518" y="3.33447" width="1" height="55.7253" transform="rotate(45 498.518 3.33447)" fill="#D0D0D0"/>
<rect x="490.033" y="-5.15088" width="1" height="55.7253" transform="rotate(45 490.033 -5.15088)" fill="#D0D0D0"/>
</g>
<mask id="mask14_1415_2" style="mask-type:alpha" maskUnits="userSpaceOnUse" x="266" y="0" width="38" height="10">
<rect x="266" width="38" height="10" fill="#ECECEC"/>
</mask>
<g mask="url(#mask14_1415_2)">
<rect x="285.184" y="-20" width="1" height="55.7253" transform="rotate(45 285.184 -20)" fill="#D0D0D0"/>
<rect x="302.154" y="-3.0293" width="1" height="55.7253" transform="rotate(45 302.154 -3.0293)" fill="#D0D0D0"/>
<rect x="293.669" y="-11.5146" width="1" height="55.7253" transform="rotate(45 293.669 -11.5146)" fill="#D0D0D0"/>
<rect x="310.64" y="5.45605" width="1" height="55.7253" transform="rotate(45 310.64 5.45605)" fill="#D0D0D0"/>
<rect x="289.426" y="-15.7573" width="1" height="55.7253" transform="rotate(45 289.426 -15.7573)" fill="#D0D0D0"/>
<rect x="306.397" y="1.21338" width="1" height="55.7253" transform="rotate(45 306.397 1.21338)" fill="#D0D0D0"/>
<rect x="297.912" y="-7.27197" width="1" height="55.7253" transform="rotate(45 297.912 -7.27197)" fill="#D0D0D0"/>
<rect x="314.882" y="9.69824" width="1" height="55.7253" transform="rotate(45 314.882 9.69824)" fill="#D0D0D0"/>
<rect x="287.305" y="-17.8789" width="1" height="55.7253" transform="rotate(45 287.305 -17.8789)" fill="#D0D0D0"/>
<rect x="304.276" y="-0.908203" width="1" height="55.7253" transform="rotate(45 304.276 -0.908203)" fill="#D0D0D0"/>
<rect x="295.79" y="-9.39355" width="1" height="55.7253" transform="rotate(45 295.79 -9.39355)" fill="#D0D0D0"/>
<rect x="312.761" y="7.57715" width="1" height="55.7253" transform="rotate(45 312.761 7.57715)" fill="#D0D0D0"/>
<rect x="291.548" y="-13.6362" width="1" height="55.7253" transform="rotate(45 291.548 -13.6362)" fill="#D0D0D0"/>
<rect x="308.518" y="3.33447" width="1" height="55.7253" transform="rotate(45 308.518 3.33447)" fill="#D0D0D0"/>
<rect x="300.033" y="-5.15088" width="1" height="55.7253" transform="rotate(45 300.033 -5.15088)" fill="#D0D0D0"/>
</g>
</svg>
