<svg width="27" height="34" viewBox="0 0 27 34" fill="none" xmlns="http://www.w3.org/2000/svg">
<path d="M1.5 9.0001V4.86068C4.58773 3.87614 9.71803 3.34392 14.0111 3.42031C18.3192 3.49696 22.4815 3.88666 25.5 4.86001V9.0001H1.5Z" fill="white" stroke="#0D0E12"/>
<path d="M1.54 29.1864C2.164 24.0261 6.22 28.2433 6.22 19.5766V15.8934C6.22 14.1877 5.19444 12.6493 3.62 11.9933L3.0418 11.7524C1.81749 11.2422 1.02 10.046 1.02 8.71962C1.02 8.0306 1.26796 7.35748 1.91598 7.12335C5.93279 5.67207 21.0672 5.67212 25.084 7.12337C25.732 7.35749 25.98 8.03062 25.98 8.71964C25.98 10.046 25.1825 11.2422 23.9582 11.7524L23.38 11.9933C21.8056 12.6493 20.78 14.1877 20.78 15.8934V19.5766C20.78 28.2433 24.836 24.1663 25.46 29.3266V30.4253C25.46 31.1293 25.2646 31.8408 24.6096 32.0991C20.8351 33.5876 6.15408 33.4828 2.38666 31.9491C1.73457 31.6836 1.54 30.9726 1.54 30.2685V29.1864Z" fill="white" stroke="#0D0E12"/>
<path d="M5.18002 28.2434C6.74002 29.8684 20.26 29.8684 21.82 28.2434" stroke="#0D0E12" stroke-linecap="round"/>
<path d="M20.78 11.4517C18.7 10.91 8.30001 10.91 6.22001 11.4517" stroke="#0D0E12" stroke-linecap="round"/>
<path fill-rule="evenodd" clip-rule="evenodd" d="M26 3.0921C25.005 2.41417 23.3195 1.8641 21 1.49844V6.36036C23.3682 6.67591 25.1053 7.2414 26 8.21527V3.0921ZM6 6.39544C3.63174 6.75119 1.89466 7.40296 1 8.562V3.09211C1.99496 2.41417 3.68047 1.8641 6 1.49844V6.39544ZM16.5 6.03858V1.06676C15.5582 1.02283 14.5576 1 13.5 1C12.2531 1 11.0855 1.03173 10 1.09237V6.0574C11.0974 6.0155 12.2677 6 13.5 6C14.547 6 15.5492 6.01119 16.5 6.03858Z" fill="white"/>
<path d="M21 1.49844L21.0779 1.00454L20.5 0.913443V1.49844H21ZM26 3.0921H26.5V2.82774L26.2815 2.67889L26 3.0921ZM21 6.36036H20.5V6.79816L20.934 6.85598L21 6.36036ZM26 8.21527L25.6318 8.55353L26.5 9.4986V8.21527H26ZM1 8.562H0.5V10.028L1.3958 8.86752L1 8.562ZM6 6.39544L6.07427 6.88989L6.5 6.82594V6.39544H6ZM1 3.09211L0.718459 2.6789L0.5 2.82776V3.09211H1ZM6 1.49844H6.5V0.913443L5.92214 1.00454L6 1.49844ZM16.5 1.06676H17V0.589543L16.5233 0.567305L16.5 1.06676ZM16.5 6.03858L16.4856 6.53837L17 6.55319V6.03858H16.5ZM10 1.09237L9.97211 0.593147L9.5 0.619521V1.09237H10ZM10 6.0574H9.5V6.57685L10.0191 6.55703L10 6.0574ZM20.9221 1.99234C23.2205 2.35467 24.8167 2.89089 25.7184 3.5053L26.2815 2.67889C25.1933 1.93744 23.4185 1.37354 21.0779 1.00454L20.9221 1.99234ZM21.5 6.36036V1.49844H20.5V6.36036H21.5ZM26.3682 7.877C25.8464 7.30901 25.1066 6.88832 24.2216 6.57039C23.3341 6.25151 22.2697 6.02512 21.066 5.86474L20.934 6.85598C22.0985 7.01115 23.0869 7.22528 23.8835 7.5115C24.6829 7.79867 25.2589 8.14766 25.6318 8.55353L26.3682 7.877ZM26.5 8.21527V3.0921H25.5V8.21527H26.5ZM1.3958 8.86752C2.16249 7.87426 3.72177 7.24327 6.07427 6.88989L5.92573 5.90098C3.5417 6.2591 1.62682 6.93166 0.604199 8.25648L1.3958 8.86752ZM0.5 3.09211V8.562H1.5V3.09211H0.5ZM5.92214 1.00454C3.58147 1.37354 1.80665 1.93745 0.718459 2.6789L1.28154 3.50531C2.18327 2.8909 3.77948 2.35467 6.07786 1.99234L5.92214 1.00454ZM6.5 6.39544V1.49844H5.5V6.39544H6.5ZM16 1.06676V6.03858H17V1.06676H16ZM13.5 1.5C14.5505 1.5 15.5433 1.52268 16.4767 1.56622L16.5233 0.567305C15.5732 0.522982 14.5648 0.5 13.5 0.5V1.5ZM10.0279 1.59159C11.1032 1.53152 12.2615 1.5 13.5 1.5V0.5C12.2447 0.5 11.0677 0.531943 9.97211 0.593147L10.0279 1.59159ZM10.5 6.0574V1.09237H9.5V6.0574H10.5ZM13.5 5.5C12.2639 5.5 11.0868 5.51554 9.98092 5.55776L10.0191 6.55703C11.108 6.51546 12.2715 6.5 13.5 6.5V5.5ZM16.5144 5.53878C15.5576 5.51122 14.5504 5.5 13.5 5.5V6.5C14.5436 6.5 15.5408 6.51115 16.4856 6.53837L16.5144 5.53878Z" fill="black"/>
</svg>
